REM DIRINDEX 1\2,1\3,1\4,1\5,1\6
REM DIRNAME "folder01","folder02","folder03","folder04","folder05","folder06"
TITLE ""
FILE "Disc5Track28.mp3" MP3
  TRACK 01 AUDIO
    TITLE "3:cjc161_09105"
    INDEX 01 00:00:00
  TRACK 02 AUDIO
    TITLE "4:cjc161_09106"
    INDEX 01 00:01:00
  TRACK 03 AUDIO
    TITLE "5:cjc161_09107"
    INDEX 01 00:02:64
  TRACK 04 AUDIO
    TITLE "6:cjc161_09108"
    INDEX 01 00:04:02
  TRACK 05 AUDIO
    TITLE "0:"
    INDEX 01 00:06:74
  TRACK 06 AUDIO
    TITLE "3:cjc161_09109"
    INDEX 01 00:07:30
  TRACK 07 AUDIO
    TITLE "4:cjc161_09110"
    INDEX 01 00:08:51
  TRACK 08 AUDIO
    TITLE "5:cjc161_09111"
    INDEX 01 00:09:60
  TRACK 09 AUDIO
    TITLE "6:cjc161_09112"
    INDEX 01 00:11:02
  TRACK 10 AUDIO
    TITLE "0:"
    INDEX 01 00:14:40
  TRACK 11 AUDIO
    TITLE "3:cjc161_09113"
    INDEX 01 00:15:00
  TRACK 12 AUDIO
    TITLE "4:cjc161_09114"
    INDEX 01 00:16:23
  TRACK 13 AUDIO
    TITLE "5:cjc161_09115"
    INDEX 01 00:17:34
  TRACK 14 AUDIO
    TITLE "6:cjc161_09116"
    INDEX 01 00:18:55
  TRACK 15 AUDIO
    TITLE "0:"
    INDEX 01 00:21:50
  TRACK 16 AUDIO
    TITLE "3:cjc161_09117"
    INDEX 01 00:22:08
  TRACK 17 AUDIO
    TITLE "4:cjc161_09118"
    INDEX 01 00:23:41
  TRACK 18 AUDIO
    TITLE "5:cjc161_09119"
    INDEX 01 00:25:63
  TRACK 19 AUDIO
    TITLE "6:cjc161_09120"
    INDEX 01 00:27:19
  TRACK 20 AUDIO
    TITLE "0:"
    INDEX 01 00:31:05
  TRACK 21 AUDIO
    TITLE "3:cjc161_09121"
    INDEX 01 00:31:36
  TRACK 22 AUDIO
    TITLE "4:cjc161_09122"
    INDEX 01 00:32:59
  TRACK 23 AUDIO
    TITLE "5:cjc161_09123"
    INDEX 01 00:34:29
  TRACK 24 AUDIO
    TITLE "6:cjc161_09124"
    INDEX 01 00:35:52
  TRACK 25 AUDIO
    TITLE "0:"
    INDEX 01 00:39:61
  TRACK 26 AUDIO
    TITLE "3:cjc161_09125"
    INDEX 01 00:40:22
  TRACK 27 AUDIO
    TITLE "4:cjc161_09126"
    INDEX 01 00:41:48
  TRACK 28 AUDIO
    TITLE "5:cjc161_09127"
    INDEX 01 00:42:48
  TRACK 29 AUDIO
    TITLE "6:cjc161_09128"
    INDEX 01 00:43:73
  TRACK 30 AUDIO
    TITLE "0:"
    INDEX 01 00:47:04
  TRACK 31 AUDIO
    TITLE "3:cjc161_09129"
    INDEX 01 00:47:35
  TRACK 32 AUDIO
    TITLE "4:cjc161_09130"
    INDEX 01 00:48:66
  TRACK 33 AUDIO
    TITLE "5:cjc161_09131"
    INDEX 01 00:50:49
  TRACK 34 AUDIO
    TITLE "6:cjc161_09132"
    INDEX 01 00:52:01
  TRACK 35 AUDIO
    TITLE "0:"
    INDEX 01 00:53:69
  TRACK 36 AUDIO
    TITLE "3:cjc161_09133"
    INDEX 01 00:54:24
  TRACK 37 AUDIO
    TITLE "4:cjc161_09134"
    INDEX 01 00:55:52
  TRACK 38 AUDIO
    TITLE "5:cjc161_09135"
    INDEX 01 00:57:61
  TRACK 39 AUDIO
    TITLE "6:cjc161_09136"
    INDEX 01 00:59:15
  TRACK 40 AUDIO
    TITLE "0:"
    INDEX 01 01:02:72
  TRACK 41 AUDIO
    TITLE "3:cjc161_09137"
    INDEX 01 01:03:28
  TRACK 42 AUDIO
    TITLE "4:cjc161_09138"
    INDEX 01 01:04:59
  TRACK 43 AUDIO
    TITLE "5:cjc161_09139"
    INDEX 01 01:06:35
  TRACK 44 AUDIO
    TITLE "0:"
    INDEX 01 01:07:65
  TRACK 45 AUDIO
    TITLE "3:cjc161_09140"
    INDEX 01 01:08:26
  TRACK 46 AUDIO
    TITLE "4:cjc161_09141"
    INDEX 01 01:09:47
  TRACK 47 AUDIO
    TITLE "5:cjc161_09142"
    INDEX 01 01:10:56
  TRACK 48 AUDIO
    TITLE "6:cjc161_09143"
    INDEX 01 01:12:04
  TRACK 49 AUDIO
    TITLE "0:"
    INDEX 01 01:14:66
  TRACK 50 AUDIO
    TITLE "3:cjc161_09144"
    INDEX 01 01:15:24
  TRACK 51 AUDIO
    TITLE "4:cjc161_09145"
    INDEX 01 01:16:53
  TRACK 52 AUDIO
    TITLE "5:cjc161_09146"
    INDEX 01 01:18:55
  TRACK 53 AUDIO
    TITLE "0:"
    INDEX 01 01:20:11
  TRACK 54 AUDIO
    TITLE "3:cjc161_09147"
    INDEX 01 01:20:39
  TRACK 55 AUDIO
    TITLE "4:cjc161_09148"
    INDEX 01 01:22:06
  TRACK 56 AUDIO
    TITLE "5:cjc161_09149"
    INDEX 01 01:24:23
  TRACK 57 AUDIO
    TITLE "6:cjc161_09150"
    INDEX 01 01:25:63
  TRACK 58 AUDIO
    TITLE "0:"
    INDEX 01 01:28:58
  TRACK 59 AUDIO
    TITLE "3:cjc161_09151"
    INDEX 01 01:29:16
  TRACK 60 AUDIO
    TITLE "4:cjc161_09152"
    INDEX 01 01:30:33
  TRACK 61 AUDIO
    TITLE "5:cjc161_09153"
    INDEX 01 01:32:65
  TRACK 62 AUDIO
    TITLE "6:cjc161_09154"
    INDEX 01 01:34:06
  TRACK 63 AUDIO
    TITLE "0:"
    INDEX 01 01:35:72
  TRACK 64 AUDIO
    TITLE "3:cjc161_09155"
    INDEX 01 01:36:30
  TRACK 65 AUDIO
    TITLE "4:cjc161_09156"
    INDEX 01 01:37:47
  TRACK 66 AUDIO
    TITLE "5:cjc161_09157"
    INDEX 01 01:39:36
  TRACK 67 AUDIO
    TITLE "6:cjc161_09158"
    INDEX 01 01:40:57
  TRACK 68 AUDIO
    TITLE "0:"
    INDEX 01 01:42:56
